<?xml version="1.0" encoding="UTF-8" standalone="no"?>
<!-- Created with Inkscape (http://www.inkscape.org/) -->

<svg
   xmlns:dc="http://purl.org/dc/elements/1.1/"
   xmlns:cc="http://creativecommons.org/ns#"
   xmlns:rdf="http://www.w3.org/1999/02/22-rdf-syntax-ns#"
   xmlns:svg="http://www.w3.org/2000/svg"
   xmlns="http://www.w3.org/2000/svg"
   xmlns:xlink="http://www.w3.org/1999/xlink"
   xmlns:sodipodi="http://sodipodi.sourceforge.net/DTD/sodipodi-0.dtd"
   xmlns:inkscape="http://www.inkscape.org/namespaces/inkscape"
   id="svg2"
   sodipodi:version="0.32"
   inkscape:version="0.91 r13725"
   width="800"
   height="828.29932"
   version="1.0"
   sodipodi:docname="LeopardHead.svg"
   inkscape:output_extension="org.inkscape.output.svg.inkscape">
  <metadata
     id="metadata7">
    <rdf:RDF>
      <cc:Work
         rdf:about="">
        <dc:format>image/svg+xml</dc:format>
        <dc:type
           rdf:resource="http://purl.org/dc/dcmitype/StillImage" />
        <dc:title></dc:title>
      </cc:Work>
    </rdf:RDF>
  </metadata>
  <defs
     id="defs5">
    <linearGradient
       inkscape:collect="always"
       id="linearGradient39619">
      <stop
         style="stop-color:#bfbfb5;stop-opacity:1;"
         offset="0"
         id="stop39621" />
      <stop
         style="stop-color:#bfbfb5;stop-opacity:0;"
         offset="1"
         id="stop39623" />
    </linearGradient>
    <linearGradient
       inkscape:collect="always"
       id="linearGradient29742">
      <stop
         style="stop-color:#ffffff;stop-opacity:1;"
         offset="0"
         id="stop29744" />
      <stop
         style="stop-color:#ffffff;stop-opacity:0;"
         offset="1"
         id="stop29746" />
    </linearGradient>
    <radialGradient
       inkscape:collect="always"
       xlink:href="#linearGradient29742"
       id="radialGradient29748"
       cx="311.34665"
       cy="282.70822"
       fx="311.34665"
       fy="282.70822"
       r="22.462643"
       gradientTransform="matrix(1,0,0,0.9945753,0,1.5335993)"
       gradientUnits="userSpaceOnUse" />
    <radialGradient
       inkscape:collect="always"
       xlink:href="#linearGradient39619"
       id="radialGradient39625"
       cx="87.533157"
       cy="-191.08267"
       fx="87.533157"
       fy="-191.08267"
       r="124.12418"
       gradientTransform="matrix(1,0,0,1.0358169,114.62472,330.84606)"
       gradientUnits="userSpaceOnUse" />
    <radialGradient
       inkscape:collect="always"
       xlink:href="#linearGradient39619"
       id="radialGradient39627"
       cx="-79.575607"
       cy="-92.298859"
       fx="-79.575607"
       fy="-92.298859"
       r="124.12418"
       gradientTransform="matrix(1,0,0,1.0358169,496.58759,225.3411)"
       gradientUnits="userSpaceOnUse" />
    <radialGradient
       inkscape:collect="always"
       xlink:href="#linearGradient39619"
       id="radialGradient40696"
       gradientUnits="userSpaceOnUse"
       gradientTransform="matrix(1,0,0,1.0358169,496.58759,225.3411)"
       cx="-79.575607"
       cy="-92.298859"
       fx="-79.575607"
       fy="-92.298859"
       r="124.12418" />
    <radialGradient
       inkscape:collect="always"
       xlink:href="#linearGradient39619"
       id="radialGradient40698"
       gradientUnits="userSpaceOnUse"
       gradientTransform="matrix(1,0,0,1.0358169,114.62472,330.84606)"
       cx="87.533157"
       cy="-191.08267"
       fx="87.533157"
       fy="-191.08267"
       r="124.12418" />
    <radialGradient
       inkscape:collect="always"
       xlink:href="#linearGradient29742"
       id="radialGradient40700"
       gradientUnits="userSpaceOnUse"
       gradientTransform="matrix(1,0,0,0.9945753,0,1.5335993)"
       cx="311.34665"
       cy="282.70822"
       fx="311.34665"
       fy="282.70822"
       r="22.462643" />
  </defs>
  <sodipodi:namedview
     inkscape:window-height="837"
     inkscape:window-width="1600"
     inkscape:pageshadow="2"
     inkscape:pageopacity="0.0"
     guidetolerance="10.0"
     gridtolerance="10.0"
     objecttolerance="10.0"
     borderopacity="1.0"
     bordercolor="#666666"
     pagecolor="#ffffff"
     id="base"
     inkscape:zoom="0.80888634"
     inkscape:cx="400"
     inkscape:cy="414.14966"
     inkscape:window-x="-8"
     inkscape:window-y="-8"
     inkscape:current-layer="svg2"
     showgrid="false"
     fit-margin-top="0"
     fit-margin-left="0"
     fit-margin-right="0"
     fit-margin-bottom="0"
     inkscape:window-maximized="1" />
  <g
     id="g40608"
     transform="matrix(3.2211897,0,0,3.2211897,-594.78346,-301.09647)">
    <path
       inkscape:connector-curvature="0"
       sodipodi:nodetypes="cccccccccccccccccccccccccccccc"
       d="m 379.64684,139.11702 c 7.00931,-8.69758 15.84506,-15.9196 26.25994,-22.67904 17.88458,-10.23398 30.92083,-4.73183 24.66844,33.02387 -4.13043,11.36779 -10.41164,18.83191 -17.10876,24.66844 l 0.79576,2.38726 -6.36605,5.96817 c -6.01407,6.70181 -1.53584,11.71588 1.19364,16.71088 10.85486,22.57648 -0.0915,36.90117 -10.34483,47.34748 l -19.49602,15.51724 c -3.46964,4.98246 -4.72299,10.40819 -5.57029,15.91512 -1.28582,6.40702 -9.16957,14.28757 -14.32361,23.87268 -3.23206,7.54988 -2.16513,14.44761 -3.5809,23.87268 -8.37861,27.22415 -34.35013,23.60743 -46.98522,24.14174 -12.6351,-0.39404 -38.60662,3.22268 -46.98523,-24.00147 -1.41577,-9.42507 -0.34884,-16.3228 -3.5809,-23.87268 -5.15404,-9.58511 -13.03779,-17.46566 -14.32361,-23.87268 -0.8473,-5.50693 -2.10065,-10.93266 -5.57029,-15.91512 l -19.49602,-15.51724 c -10.25334,-10.44631 -21.19969,-24.771 -10.34483,-47.34748 2.72948,-4.995 7.20771,-10.00907 1.19364,-16.71088 l -6.36605,-5.96817 0.79576,-2.38726 c -6.69712,-5.83653 -12.97833,-13.30065 -17.10876,-24.66844 -6.25239,-37.7557 6.78386,-43.25785 24.66844,-33.02387 10.41488,6.75944 19.25063,13.98146 26.25994,22.67904 l -9.1998,-10.22417 c 12.34471,-9.55541 32.67605,-13.64481 47.82817,-18.28724 25.38573,-22.363189 40.80719,-21.877418 65.83409,0.56268 15.93282,4.50643 34.3688,9.59 46.14012,18.0059 l -8.88677,9.80256 z"
       style="fill:#ecd618;fill-opacity:1;fill-rule:evenodd;stroke:#000000;stroke-width:1.5;stroke-linecap:butt;stroke-linejoin:miter;stroke-miterlimit:4;stroke-opacity:1"
       id="path2161" />
    <path
       inkscape:connector-curvature="0"
       sodipodi:nodetypes="cccccccccccccccccccccccccccccc"
       d="m 379.64708,139.11747 c 7.00931,-8.69758 15.84506,-15.91959 26.25995,-22.67903 17.88458,-10.23398 30.92083,-4.73183 24.66844,33.02386 -4.13043,11.36779 -10.41164,18.83191 -17.10876,24.66844 l 0.79576,2.38726 -6.36605,5.96817 c -6.01407,6.70181 -1.53584,11.71588 1.19364,16.71088 10.85486,22.57648 -0.0915,36.90117 -10.34483,47.34748 l -19.49603,15.51724 c -3.46964,4.98246 -4.72299,10.40819 -5.57029,15.91512 -1.28582,6.40702 -9.16957,14.28757 -14.32361,23.87268 -3.23206,7.54988 -2.16513,14.44761 -3.5809,23.87268 -8.37861,27.22416 -34.35013,23.60744 -46.98522,24.14175 -12.6351,-0.39404 -38.60662,3.22268 -46.98523,-24.00148 -1.41577,-9.42507 -0.34884,-16.3228 -3.5809,-23.87268 -5.15404,-9.58511 -13.03779,-17.46566 -14.32361,-23.87268 -0.8473,-5.50693 -2.10065,-10.93266 -5.57029,-15.91512 L 218.83313,246.6848 c -10.25334,-10.44631 -21.19969,-24.771 -10.34483,-47.34748 2.72948,-4.995 7.20771,-10.00907 1.19364,-16.71088 l -6.36605,-5.96817 0.79576,-2.38726 c -6.69712,-5.83653 -12.97833,-13.30065 -17.10876,-24.66844 -6.25239,-37.75569 6.78386,-43.25784 24.66844,-33.02386 10.41488,6.75944 19.25063,13.98145 26.25994,22.67903 l -9.1998,-10.22417 c 12.34471,-9.5554 32.67605,-13.6448 47.82817,-18.28723 25.38573,-22.36319 40.80719,-21.87742 65.83409,0.56268 15.93282,4.50643 34.3688,9.59 46.14012,18.00589 l -8.88677,9.80256 z"
       style="fill:url(#radialGradient40696);fill-opacity:1;fill-rule:evenodd;stroke:#000000;stroke-width:1.5;stroke-linecap:butt;stroke-linejoin:miter;stroke-miterlimit:4;stroke-opacity:1"
       id="path35723" />
    <path
       inkscape:connector-curvature="0"
       sodipodi:nodetypes="cccccccccccccccccccccccccccccc"
       d="m 379.64708,139.11748 c 7.00931,-8.69758 15.84506,-15.9196 26.25994,-22.67904 17.88458,-10.23398 30.92083,-4.73183 24.66844,33.02387 -4.13043,11.36779 -10.41164,18.83191 -17.10876,24.66844 l 0.79576,2.38726 -6.36605,5.96817 c -6.01407,6.70181 -1.53584,11.71588 1.19364,16.71088 10.85486,22.57648 -0.0915,36.90117 -10.34483,47.34748 l -19.49602,15.51724 c -3.46964,4.98246 -4.72299,10.40819 -5.57029,15.91512 -1.28582,6.40702 -9.16957,14.28757 -14.32361,23.87268 -3.23206,7.54988 -2.16513,14.44761 -3.5809,23.87268 -8.37861,27.22415 -34.35013,23.60743 -46.98522,24.14174 -12.6351,-0.39404 -38.60662,3.22268 -46.98523,-24.00147 -1.41577,-9.42507 -0.34884,-16.3228 -3.5809,-23.87268 -5.15404,-9.58511 -13.03779,-17.46566 -14.32361,-23.87268 -0.8473,-5.50693 -2.10065,-10.93266 -5.57029,-15.91512 l -19.49602,-15.51724 c -10.25334,-10.44631 -21.19969,-24.771 -10.34483,-47.34748 2.72948,-4.995 7.20771,-10.00907 1.19364,-16.71088 l -6.36605,-5.96817 0.79576,-2.38726 c -6.69712,-5.83653 -12.97833,-13.30065 -17.10876,-24.66844 -6.25239,-37.7557 6.78386,-43.25785 24.66844,-33.02387 10.41488,6.75944 19.25063,13.98146 26.25994,22.67904 l -9.1998,-10.22417 c 12.34471,-9.55541 32.67605,-13.64481 47.82817,-18.28724 25.38573,-22.363189 40.80719,-21.877419 65.83409,0.56268 15.93282,4.50643 34.3688,9.59 46.14012,18.0059 l -8.88677,9.80256 z"
       style="fill:url(#radialGradient40698);fill-opacity:1;fill-rule:evenodd;stroke:#000000;stroke-width:1.5;stroke-linecap:butt;stroke-linejoin:miter;stroke-miterlimit:4;stroke-opacity:1"
       id="path35725" />
    <path
       inkscape:connector-curvature="0"
       sodipodi:nodetypes="cccsc"
       id="path40702"
       d="m 245.27164,175.70747 c -0.0519,-2.1338 25.64934,-5.04701 35.80902,2.38726 11.07401,10.94886 -4.64861,17.73464 -11.7374,14.72149 -2.33217,-1.16609 -5.48665,-3.73347 -9.86928,-7.35576 -6.58876,-5.44566 -15.95272,-8.32235 -14.20234,-9.75299 z"
       style="fill:#ffffff;fill-opacity:0.77653629;fill-rule:evenodd;stroke:none;stroke-width:1px;stroke-linecap:butt;stroke-linejoin:miter;stroke-opacity:1" />
    <path
       inkscape:connector-curvature="0"
       sodipodi:nodetypes="cccsc"
       id="path11993"
       d="m 246.88329,172.48011 c -0.0519,-2.1338 25.64934,-5.04701 35.80902,2.38726 11.07401,10.94886 -4.64861,17.73464 -11.7374,14.72149 -2.33217,-1.16609 -5.48665,-3.73347 -9.86928,-7.35576 -6.58876,-5.44566 -15.95272,-8.32235 -14.20234,-9.75299 z"
       style="fill:#000000;fill-opacity:1;fill-rule:evenodd;stroke:#000000;stroke-width:1px;stroke-linecap:butt;stroke-linejoin:miter;stroke-opacity:1" />
    <ellipse
       ry="7.3607426"
       rx="7.6591511"
       cy="181.23341"
       cx="275.03314"
       transform="translate(-0.994695,0)"
       id="path12964"
       style="opacity:1;fill:#000000;fill-opacity:1;fill-rule:nonzero;stroke:#777772;stroke-width:1.5;stroke-miterlimit:4;stroke-dasharray:none;stroke-dashoffset:0;stroke-opacity:1" />
    <path
       inkscape:connector-curvature="0"
       sodipodi:nodetypes="ccccccccccc"
       d="m 312.5172,314.54974 c 3.23741,0.42296 5.58881,1.66422 8.62894,3.66545 18.33139,8.8187 22.31223,-10.61525 23.87268,-34.81433 3.0504,-22.41379 17.38349,-24.94181 16.313,-29.04509 -0.83831,-1.3025 -11.33193,0.86966 -16.51194,1.79045 -19.37008,3.35579 -26.05045,-1.53375 -33.05317,-5.92457 -7.00273,4.47802 -13.6831,9.36756 -33.05318,6.01177 -5.18001,-0.92079 -15.67363,-3.09295 -16.51194,-1.79045 -1.07049,4.10328 13.2626,6.6313 16.313,29.04509 1.56045,24.19908 5.54129,43.63303 23.87268,34.81433 3.50777,-2.30907 6.35935,-3.54611 10.12993,-3.75265 z"
       style="fill:#270000;fill-opacity:1;fill-rule:evenodd;stroke:#000000;stroke-width:1px;stroke-linecap:butt;stroke-linejoin:miter;stroke-opacity:1"
       id="path13937" />
    <path
       inkscape:connector-curvature="0"
       sodipodi:nodetypes="ccccccccccc"
       d="m 312.46279,302.18559 c 1.41277,0.18458 2.43889,0.72625 3.76557,1.59957 7.99963,3.84838 11.1294,-4.63239 11.81036,-15.19261 -0.26035,-13.36204 5.99446,-24.41219 5.52731,-26.20282 -0.36583,-0.5684 -5.14407,0.37951 -7.40458,0.78133 -8.45289,1.46444 -11.1692,-0.66931 -14.22511,-2.58542 -3.05592,1.95417 -5.97116,4.08791 -14.42406,2.62348 -2.2605,-0.40183 -8.03343,-1.15079 -8.39926,-0.5824 -0.33826,1.01725 7.27328,9.29833 7.31776,26.79964 0.68096,10.56023 3.61179,18.24524 11.61141,14.39685 1.53076,-1.00765 2.77515,-1.54748 4.4206,-1.63762 z"
       style="fill:#800000;fill-opacity:1;fill-rule:evenodd;stroke:#000000;stroke-width:0.43638942px;stroke-linecap:butt;stroke-linejoin:miter;stroke-opacity:1"
       id="path14913" />
    <path
       inkscape:connector-curvature="0"
       sodipodi:nodetypes="cccc"
       id="path15888"
       d="m 335.64127,262.10799 c 1.13964,-5.38343 4.88961,-3.97999 7.73691,-4.92349 3.26349,3.67356 -3.52183,18.5413 -7.17423,18.28725 l -0.56268,-13.36376 z"
       style="fill:#ffffff;fill-opacity:1;fill-rule:evenodd;stroke:#000000;stroke-width:0.80000001;stroke-linecap:butt;stroke-linejoin:miter;stroke-miterlimit:4;stroke-dasharray:none;stroke-opacity:1" />
    <path
       inkscape:connector-curvature="0"
       sodipodi:nodetypes="cccc"
       id="path16859"
       d="m 283.25074,261.26236 c -1.13964,-5.38343 -4.88961,-3.97999 -7.73691,-4.92349 -3.26349,3.67356 3.52183,18.5413 7.17423,18.28725 l 0.56268,-13.36376 z"
       style="fill:#ffffff;fill-opacity:1;fill-rule:evenodd;stroke:#000000;stroke-width:0.80000001;stroke-linecap:butt;stroke-linejoin:miter;stroke-miterlimit:4;stroke-dasharray:none;stroke-opacity:1" />
    <g
       style="fill:#000000;fill-opacity:1;stroke:#000000;stroke-opacity:1"
       id="g33721">
      <path
         inkscape:connector-curvature="0"
         style="fill:#000000;fill-opacity:1;fill-rule:evenodd;stroke:#000000;stroke-width:1px;stroke-linecap:butt;stroke-linejoin:miter;stroke-opacity:1"
         d="m 299.24457,174.96859 c 3.71397,-0.0784 7.28695,11.02492 0.5545,12.33073 -0.81826,-0.29459 -0.98441,-11.23004 -0.5545,-12.33073 z"
         id="path11931"
         sodipodi:nodetypes="ccc" />
      <g
         id="g29785"
         style="fill:#000000;fill-opacity:1;stroke:#000000;stroke-opacity:1">
        <path
           inkscape:connector-curvature="0"
           sodipodi:nodetypes="cssss"
           id="path11907"
           d="m 282.53155,240.77653 c -1.05608,0.96424 -0.91832,2.02032 0,3.12231 0.91834,1.10198 2.43357,1.33156 3.48965,0.36732 1.05607,-0.96424 1.10199,-1.83665 0.18366,-2.93864 -0.91833,-1.102 -2.61723,-1.51524 -3.67331,-0.55099 z"
           style="fill:#000000;fill-opacity:1;fill-rule:evenodd;stroke:#000000;stroke-width:0.6528179px;stroke-linecap:butt;stroke-linejoin:miter;stroke-opacity:1" />
        <path
           inkscape:connector-curvature="0"
           sodipodi:nodetypes="cssss"
           id="path11909"
           d="m 278.14397,221.78593 c -1.05608,0.96424 -0.91832,2.02032 0,3.12231 0.91834,1.10198 2.43357,1.33156 3.48965,0.36732 1.05607,-0.96424 1.10199,-1.83665 0.18366,-2.93864 -0.91833,-1.102 -2.61723,-1.51524 -3.67331,-0.55099 z"
           style="fill:#000000;fill-opacity:1;fill-rule:evenodd;stroke:#000000;stroke-width:0.6528179px;stroke-linecap:butt;stroke-linejoin:miter;stroke-opacity:1" />
        <path
           inkscape:connector-curvature="0"
           sodipodi:nodetypes="ccc"
           id="path11911"
           d="m 288.21935,228.71582 c 1.41189,-1.50818 5.6648,4.39663 4.282,5.22947 -1.44628,-0.21393 -3.17347,-1.31852 -4.282,-5.22947 z"
           style="fill:#000000;fill-opacity:1;fill-rule:evenodd;stroke:#000000;stroke-width:0.48784918px;stroke-linecap:butt;stroke-linejoin:miter;stroke-opacity:1" />
        <path
           inkscape:connector-curvature="0"
           sodipodi:nodetypes="ccc"
           id="path11913"
           d="m 277.09543,213.33513 c 1.41189,-1.50818 6.08681,2.42723 4.70401,3.26007 -1.44628,-0.21393 -3.59548,0.65088 -4.70401,-3.26007 z"
           style="fill:#000000;fill-opacity:1;fill-rule:evenodd;stroke:#000000;stroke-width:0.48784918px;stroke-linecap:butt;stroke-linejoin:miter;stroke-opacity:1" />
        <path
           inkscape:connector-curvature="0"
           sodipodi:nodetypes="csss"
           id="path11915"
           d="m 287.67543,233.69635 c -0.59375,-1.67242 -3.45053,-2.97235 -4.49214,-1.46088 -1.04162,1.51147 0.35012,5.36863 1.98548,5.52958 1.63534,0.16096 3.1004,-2.39627 2.50666,-4.0687 z"
           style="fill:#000000;fill-opacity:1;fill-rule:evenodd;stroke:#000000;stroke-width:0.68774241px;stroke-linecap:butt;stroke-linejoin:miter;stroke-opacity:1" />
        <path
           inkscape:connector-curvature="0"
           sodipodi:nodetypes="csss"
           id="path11917"
           d="m 293.85942,239.86086 c -0.48468,-1.36521 -2.81671,-2.42636 -3.66699,-1.19253 -0.85028,1.23383 0.28581,4.38248 1.62078,4.51387 1.33494,0.13139 2.53089,-1.95611 2.04621,-3.32134 z"
           style="fill:#000000;fill-opacity:1;fill-rule:evenodd;stroke:#000000;stroke-width:0.56141293px;stroke-linecap:butt;stroke-linejoin:miter;stroke-opacity:1" />
        <path
           inkscape:connector-curvature="0"
           sodipodi:nodetypes="csss"
           id="path11919"
           d="m 273.5223,216.92989 c -0.39985,-1.12628 -2.32374,-2.00171 -3.0252,-0.98382 -0.70147,1.01789 0.23578,3.61548 1.33711,3.72387 1.10131,0.1084 2.08795,-1.61376 1.68809,-2.74005 z"
           style="fill:#000000;fill-opacity:1;fill-rule:evenodd;stroke:#000000;stroke-width:0.46315667px;stroke-linecap:butt;stroke-linejoin:miter;stroke-opacity:1" />
        <path
           inkscape:connector-curvature="0"
           sodipodi:nodetypes="csss"
           id="path11921"
           d="m 272.146,223.65368 c -1.00273,1.26432 -0.62684,4.09332 1.0406,4.16718 1.66745,0.0739 3.9693,-2.85929 3.30459,-4.19746 -0.6647,-1.33816 -3.34246,-1.23402 -4.34519,0.0303 z"
           style="fill:#000000;fill-opacity:1;fill-rule:evenodd;stroke:#000000;stroke-width:0.62534451px;stroke-linecap:butt;stroke-linejoin:miter;stroke-opacity:1" />
        <path
           inkscape:connector-curvature="0"
           sodipodi:nodetypes="ccc"
           id="path11923"
           d="m 277.27379,230.46046 c 1.78381,-1.04215 5.14012,4.06447 3.57706,4.46771 -1.32495,-0.61806 -3.63162,-0.40306 -3.57706,-4.46771 z"
           style="fill:#000000;fill-opacity:1;fill-rule:evenodd;stroke:#000000;stroke-width:0.48784918px;stroke-linecap:butt;stroke-linejoin:miter;stroke-opacity:1" />
        <path
           inkscape:connector-curvature="0"
           sodipodi:nodetypes="ccc"
           id="path11925"
           d="m 284.0577,204.42959 c 2.70011,-3.0804 13.94304,5.24944 13.0285,8.19769 -1.74867,1.76285 -13.99604,-5.16764 -13.0285,-8.19769 z"
           style="fill:#000000;fill-opacity:1;fill-rule:evenodd;stroke:#000000;stroke-width:1px;stroke-linecap:butt;stroke-linejoin:miter;stroke-opacity:1" />
        <path
           inkscape:connector-curvature="0"
           sodipodi:nodetypes="ccc"
           id="path11927"
           d="m 291.14186,196.06476 c 3.40698,-2.27419 10.11376,8.09103 10.45486,11.29777 -3.73773,-1.33753 -12.17556,-8.6226 -10.45486,-11.29777 z"
           style="fill:#000000;fill-opacity:1;fill-rule:evenodd;stroke:#000000;stroke-width:1px;stroke-linecap:butt;stroke-linejoin:miter;stroke-opacity:1" />
        <path
           inkscape:connector-curvature="0"
           sodipodi:nodetypes="ccc"
           id="path11929"
           d="m 302.05629,192.19785 c 2.6861,0.23446 2.78258,8.25448 0.5545,9.34665 -2.46551,-0.29459 -3.53876,-8.24596 -0.5545,-9.34665 z"
           style="fill:#000000;fill-opacity:1;fill-rule:evenodd;stroke:#000000;stroke-width:1px;stroke-linecap:butt;stroke-linejoin:miter;stroke-opacity:1" />
        <g
           id="g29750"
           style="fill:#000000;fill-opacity:1;stroke:#000000;stroke-opacity:1">
          <path
             inkscape:connector-curvature="0"
             style="fill:#000000;fill-opacity:1;fill-rule:evenodd;stroke:#000000;stroke-width:1px;stroke-linecap:butt;stroke-linejoin:miter;stroke-opacity:1"
             d="m 257.42813,138.59875 c -2.46174,-0.77369 -7.3149,4.50148 -6.47087,7.03356 0.84403,2.53208 8.22926,4.85315 9.84698,3.09476 1.61772,-1.75839 -0.91436,-9.35463 -3.37611,-10.12832 z"
             id="path3154"
             sodipodi:nodetypes="csss" />
          <path
             inkscape:connector-curvature="0"
             style="fill:#000000;fill-opacity:1;fill-rule:evenodd;stroke:#000000;stroke-width:1px;stroke-linecap:butt;stroke-linejoin:miter;stroke-opacity:1"
             d="m 243.29533,154.92894 c -2.46174,-0.77369 -7.3149,2.81343 -6.47087,5.34551 0.84403,2.53208 8.22926,4.85315 9.84698,3.09476 1.61772,-1.75839 -0.91436,-7.66658 -3.37611,-8.44027 z"
             id="path4125"
             sodipodi:nodetypes="csss" />
          <path
             inkscape:connector-curvature="0"
             style="fill:#000000;fill-opacity:1;fill-rule:evenodd;stroke:#000000;stroke-width:1px;stroke-linecap:butt;stroke-linejoin:miter;stroke-opacity:1"
             d="m 291.96753,123.15246 c -2.46174,-0.77369 -9.84698,3.37611 -9.00295,5.90819 0.84403,2.53208 9.07329,3.72779 10.69101,1.9694 1.61772,-1.75839 0.77369,-7.1039 -1.68806,-7.87759 z"
             id="path4127"
             sodipodi:nodetypes="csss" />
          <path
             inkscape:connector-curvature="0"
             style="fill:#000000;fill-opacity:1;fill-rule:evenodd;stroke:#000000;stroke-width:1px;stroke-linecap:butt;stroke-linejoin:miter;stroke-opacity:1"
             d="m 258.83484,123.12494 c -1.61772,1.47705 -2.25073,5.06416 -0.84402,6.75221 1.40671,1.68805 4.85315,1.47705 6.47087,0 1.61772,-1.47705 1.40671,-4.22014 0,-5.90819 -1.40671,-1.68805 -4.00913,-2.32107 -5.62685,-0.84402 z"
             id="path4129"
             sodipodi:nodetypes="cssss" />
          <path
             inkscape:connector-curvature="0"
             style="fill:#000000;fill-opacity:1;fill-rule:evenodd;stroke:#000000;stroke-width:1px;stroke-linecap:butt;stroke-linejoin:miter;stroke-opacity:1"
             d="m 243.88559,127.16493 c -1.61772,1.47705 -1.4067,3.09477 1e-5,4.78282 1.40671,1.68805 3.72778,2.03973 5.3455,0.56268 1.61772,-1.47705 1.68805,-2.81343 0.28134,-4.50148 -1.40671,-1.68805 -4.00913,-2.32107 -5.62685,-0.84402 z"
             id="path5100"
             sodipodi:nodetypes="cssss" />
          <path
             inkscape:connector-curvature="0"
             style="fill:#000000;fill-opacity:1;fill-rule:evenodd;stroke:#000000;stroke-width:1px;stroke-linecap:butt;stroke-linejoin:miter;stroke-opacity:1"
             d="m 286.12504,161.95016 c -2.43643,2.21794 -16.85853,-14.57397 -13.50443,-15.47382 1.13529,-0.30458 15.29082,13.84763 13.50443,15.47382 z"
             id="path5102"
             sodipodi:nodetypes="css" />
          <path
             inkscape:connector-curvature="0"
             style="fill:#000000;fill-opacity:1;fill-rule:evenodd;stroke:#000000;stroke-width:1px;stroke-linecap:butt;stroke-linejoin:miter;stroke-opacity:1"
             d="m 297.55249,158.33499 c -2.05905,2.57211 -16.76188,-14.27017 -13.50443,-15.47382 3.09391,-1.14322 15.23391,13.3134 13.50443,15.47382 z"
             id="path5104"
             sodipodi:nodetypes="css" />
          <path
             inkscape:connector-curvature="0"
             style="fill:#000000;fill-opacity:1;fill-rule:evenodd;stroke:#000000;stroke-width:1px;stroke-linecap:butt;stroke-linejoin:miter;stroke-opacity:1"
             d="m 285.21532,108.52266 c -2.46174,-0.77369 -6.47087,1.40672 -5.62684,3.9388 0.84403,2.53208 6.5412,4.29047 8.15892,2.53208 1.61772,-1.75839 -0.0703,-5.69719 -2.53208,-6.47088 z"
             id="path6075"
             sodipodi:nodetypes="csss" />
          <path
             inkscape:connector-curvature="0"
             style="fill:#000000;fill-opacity:1;fill-rule:evenodd;stroke:#000000;stroke-width:1px;stroke-linecap:butt;stroke-linejoin:miter;stroke-opacity:1"
             d="m 238.85955,179.67472 c 1.31293,-0.75025 13.50985,12.83767 10.691,13.78577 -4.70692,-0.0208 -10.9568,-4.94885 -10.691,-13.78577 z"
             id="path6077"
             sodipodi:nodetypes="ccc" />
          <path
             inkscape:connector-curvature="0"
             style="fill:#000000;fill-opacity:1;fill-rule:evenodd;stroke:#000000;stroke-width:1px;stroke-linecap:butt;stroke-linejoin:miter;stroke-opacity:1"
             d="m 229.0873,194.7415 c 3.39333,-2.53345 9.84307,10.91647 6.75221,12.09772 -2.84103,-0.95376 -5.92735,-3.80613 -6.75221,-12.09772 z"
             id="path6079"
             sodipodi:nodetypes="ccc" />
          <path
             inkscape:connector-curvature="0"
             style="fill:#000000;fill-opacity:1;fill-rule:evenodd;stroke:#000000;stroke-width:1px;stroke-linecap:butt;stroke-linejoin:miter;stroke-opacity:1"
             d="m 257.99082,191.20975 c 4.85859,3.26307 13.06104,11.70558 10.691,15.47383 -3.06445,0.96433 -9.5321,-9.84436 -10.691,-15.47383 z"
             id="path6081"
             sodipodi:nodetypes="ccc" />
          <path
             inkscape:connector-curvature="0"
             style="fill:#000000;fill-opacity:1;fill-rule:evenodd;stroke:#000000;stroke-width:1px;stroke-linecap:butt;stroke-linejoin:miter;stroke-opacity:1"
             d="m 254.44297,222.41379 c -3.63964,4.95876 11.12803,16.46594 15.71618,11.53846 -6.65074,-1.72813 -11.12448,-6.72177 -15.71618,-11.53846 z"
             id="path8021"
             sodipodi:nodetypes="ccc" />
          <path
             inkscape:connector-curvature="0"
             style="fill:#000000;fill-opacity:1;fill-rule:evenodd;stroke:#000000;stroke-width:1px;stroke-linecap:butt;stroke-linejoin:miter;stroke-opacity:1"
             d="m 244.09814,229.97347 c 0.28477,-0.28477 15.27956,9.18994 13.72679,10.74271 -1.97753,1.97753 -14.20352,-10.26598 -13.72679,-10.74271 z"
             id="path8992"
             sodipodi:nodetypes="css" />
          <path
             inkscape:connector-curvature="0"
             style="fill:#000000;fill-opacity:1;fill-rule:evenodd;stroke:#000000;stroke-width:1px;stroke-linecap:butt;stroke-linejoin:miter;stroke-opacity:1"
             d="m 249.23925,269.13298 c 1.10057,-3.14534 8.15527,14.06404 7.44956,15.75864 -1.07516,2.58172 -7.67223,-15.12228 -7.44956,-15.75864 z"
             id="path8994"
             sodipodi:nodetypes="css" />
          <path
             inkscape:connector-curvature="0"
             style="fill:#000000;fill-opacity:1;fill-rule:evenodd;stroke:#000000;stroke-width:1px;stroke-linecap:butt;stroke-linejoin:miter;stroke-opacity:1"
             d="m 219.62865,210.47745 c -5.03737,13.58604 1.87839,29.62919 10.94164,31.6313 1.33447,-1.98313 -6.27135,-4.85304 -8.44905,-14.79819 -1.75116,-7.99722 -1.24922,-17.3238 -2.49259,-16.83311 z"
             id="path9965"
             sodipodi:nodetypes="ccsc" />
          <path
             inkscape:connector-curvature="0"
             style="fill:#000000;fill-opacity:1;fill-rule:evenodd;stroke:#000000;stroke-width:1px;stroke-linecap:butt;stroke-linejoin:miter;stroke-opacity:1"
             d="m 263.19629,289.65517 c 0.85163,-1.2674 5.8759,9.3529 6.96286,14.32361 0.91599,4.18885 -4.56586,5.34781 -4.77453,3.77984 -0.61254,-4.6026 -2.83021,-17.14819 -2.18833,-18.10345 z"
             id="path10936"
             sodipodi:nodetypes="csss" />
          <path
             inkscape:connector-curvature="0"
             style="fill:#000000;fill-opacity:1;fill-rule:evenodd;stroke:#000000;stroke-width:1px;stroke-linecap:butt;stroke-linejoin:miter;stroke-opacity:1"
             d="m 301.03618,220.04733 c 5.81371,6.66828 10.80963,3.4269 13.50442,-0.14067 8.24359,-8.57111 16.06566,0.29992 10.40966,6.18953 l -8.58093,8.58094 c -3.14524,3.31129 -12.61664,3.68874 -15.33316,0.42201 l -9.7063,-9.84698 c -4.76956,-6.34067 2.16956,-12.47532 9.70631,-5.20483 z"
             id="path12966"
             sodipodi:nodetypes="ccccccc" />
          <path
             inkscape:connector-curvature="0"
             style="fill:#000000;fill-opacity:1;fill-rule:evenodd;stroke:#000000;stroke-width:1px;stroke-linecap:butt;stroke-linejoin:miter;stroke-opacity:1"
             d="m 360.14974,138.45848 c 2.46174,-0.77369 7.3149,4.50148 6.47087,7.03356 -0.84403,2.53208 -8.22926,4.85315 -9.84698,3.09476 -1.61772,-1.75839 0.91436,-9.35463 3.37611,-10.12832 z"
             id="path17836"
             sodipodi:nodetypes="csss" />
          <path
             inkscape:connector-curvature="0"
             style="fill:#000000;fill-opacity:1;fill-rule:evenodd;stroke:#000000;stroke-width:1px;stroke-linecap:butt;stroke-linejoin:miter;stroke-opacity:1"
             d="m 374.28254,154.78867 c 2.46174,-0.77369 7.3149,2.81343 6.47087,5.34551 -0.84403,2.53208 -8.22926,4.85315 -9.84698,3.09476 -1.61772,-1.75839 0.91436,-7.66658 3.37611,-8.44027 z"
             id="path17838"
             sodipodi:nodetypes="csss" />
          <path
             inkscape:connector-curvature="0"
             style="fill:#000000;fill-opacity:1;fill-rule:evenodd;stroke:#000000;stroke-width:1px;stroke-linecap:butt;stroke-linejoin:miter;stroke-opacity:1"
             d="m 325.61034,123.01219 c 2.46174,-0.77369 9.84698,3.37611 9.00295,5.90819 -0.84403,2.53208 -9.07329,3.72779 -10.69101,1.9694 -1.61772,-1.75839 -0.77369,-7.1039 1.68806,-7.87759 z"
             id="path17840"
             sodipodi:nodetypes="csss" />
          <path
             inkscape:connector-curvature="0"
             style="fill:#000000;fill-opacity:1;fill-rule:evenodd;stroke:#000000;stroke-width:1px;stroke-linecap:butt;stroke-linejoin:miter;stroke-opacity:1"
             d="m 358.74303,122.98467 c 1.61772,1.47705 2.25073,5.06416 0.84402,6.75221 -1.40671,1.68805 -4.85315,1.47705 -6.47087,0 -1.61772,-1.47705 -1.40671,-4.22014 0,-5.90819 1.40671,-1.68805 4.00913,-2.32107 5.62685,-0.84402 z"
             id="path17842"
             sodipodi:nodetypes="cssss" />
          <path
             inkscape:connector-curvature="0"
             style="fill:#000000;fill-opacity:1;fill-rule:evenodd;stroke:#000000;stroke-width:1px;stroke-linecap:butt;stroke-linejoin:miter;stroke-opacity:1"
             d="m 373.69228,127.02466 c 1.61772,1.47705 1.4067,3.09477 -10e-6,4.78282 -1.40671,1.68805 -3.72778,2.03973 -5.3455,0.56268 -1.61772,-1.47705 -1.68805,-2.81343 -0.28134,-4.50148 1.40671,-1.68805 4.00913,-2.32107 5.62685,-0.84402 z"
             id="path17844"
             sodipodi:nodetypes="cssss" />
          <path
             inkscape:connector-curvature="0"
             style="fill:#000000;fill-opacity:1;fill-rule:evenodd;stroke:#000000;stroke-width:1px;stroke-linecap:butt;stroke-linejoin:miter;stroke-opacity:1"
             d="m 331.45283,161.80989 c 2.43643,2.21794 16.85853,-14.57397 13.50443,-15.47382 -1.13529,-0.30458 -15.29082,13.84763 -13.50443,15.47382 z"
             id="path17846"
             sodipodi:nodetypes="css" />
          <path
             inkscape:connector-curvature="0"
             style="fill:#000000;fill-opacity:1;fill-rule:evenodd;stroke:#000000;stroke-width:1px;stroke-linecap:butt;stroke-linejoin:miter;stroke-opacity:1"
             d="m 320.02538,158.19472 c 2.05905,2.57211 16.76188,-14.27017 13.50443,-15.47382 -3.09391,-1.14322 -15.23391,13.3134 -13.50443,15.47382 z"
             id="path17848"
             sodipodi:nodetypes="css" />
          <path
             inkscape:connector-curvature="0"
             style="fill:#000000;fill-opacity:1;fill-rule:evenodd;stroke:#000000;stroke-width:1px;stroke-linecap:butt;stroke-linejoin:miter;stroke-opacity:1"
             d="m 332.36255,108.38239 c 2.46174,-0.77369 6.47087,1.40672 5.62684,3.9388 -0.84403,2.53208 -6.5412,4.29047 -8.15892,2.53208 -1.61772,-1.75839 0.0703,-5.69719 2.53208,-6.47088 z"
             id="path17850"
             sodipodi:nodetypes="csss" />
          <path
             inkscape:connector-curvature="0"
             style="fill:#000000;fill-opacity:1;fill-rule:evenodd;stroke:#000000;stroke-width:1px;stroke-linecap:butt;stroke-linejoin:miter;stroke-opacity:1"
             d="m 378.71832,179.53445 c -1.31293,-0.75025 -13.50985,12.83767 -10.691,13.78577 4.70692,-0.0208 10.9568,-4.94885 10.691,-13.78577 z"
             id="path17852"
             sodipodi:nodetypes="ccc" />
          <path
             inkscape:connector-curvature="0"
             style="fill:#000000;fill-opacity:1;fill-rule:evenodd;stroke:#000000;stroke-width:1px;stroke-linecap:butt;stroke-linejoin:miter;stroke-opacity:1"
             d="m 388.49057,194.60123 c -3.39333,-2.53345 -9.84307,10.91647 -6.75221,12.09772 2.84103,-0.95376 5.92735,-3.80613 6.75221,-12.09772 z"
             id="path17854"
             sodipodi:nodetypes="ccc" />
          <path
             inkscape:connector-curvature="0"
             style="fill:#000000;fill-opacity:1;fill-rule:evenodd;stroke:#000000;stroke-width:1px;stroke-linecap:butt;stroke-linejoin:miter;stroke-opacity:1"
             d="m 359.58705,191.06948 c -4.85859,3.26307 -13.06104,11.70558 -10.691,15.47383 3.06445,0.96433 9.5321,-9.84436 10.691,-15.47383 z"
             id="path17856"
             sodipodi:nodetypes="ccc" />
          <path
             inkscape:connector-curvature="0"
             style="fill:#000000;fill-opacity:1;fill-rule:evenodd;stroke:#000000;stroke-width:1px;stroke-linecap:butt;stroke-linejoin:miter;stroke-opacity:1"
             d="m 363.1349,222.27352 c 3.63964,4.95876 -11.12803,16.46594 -15.71618,11.53846 6.65074,-1.72813 11.12448,-6.72177 15.71618,-11.53846 z"
             id="path17858"
             sodipodi:nodetypes="ccc" />
          <path
             inkscape:connector-curvature="0"
             style="fill:#000000;fill-opacity:1;fill-rule:evenodd;stroke:#000000;stroke-width:1px;stroke-linecap:butt;stroke-linejoin:miter;stroke-opacity:1"
             d="m 373.47973,229.8332 c -0.28477,-0.28477 -15.27956,9.18994 -13.72679,10.74271 1.97753,1.97753 14.20352,-10.26598 13.72679,-10.74271 z"
             id="path17860"
             sodipodi:nodetypes="css" />
          <path
             inkscape:connector-curvature="0"
             style="fill:#000000;fill-opacity:1;fill-rule:evenodd;stroke:#000000;stroke-width:1px;stroke-linecap:butt;stroke-linejoin:miter;stroke-opacity:1"
             d="m 368.33862,268.99271 c -1.10057,-3.14534 -8.15527,14.06404 -7.44956,15.75864 1.07516,2.58172 7.67223,-15.12228 7.44956,-15.75864 z"
             id="path17862"
             sodipodi:nodetypes="css" />
          <path
             inkscape:connector-curvature="0"
             style="fill:#000000;fill-opacity:1;fill-rule:evenodd;stroke:#000000;stroke-width:1px;stroke-linecap:butt;stroke-linejoin:miter;stroke-opacity:1"
             d="m 397.94922,210.33718 c 5.03737,13.58604 -1.87839,29.62919 -10.94164,31.6313 -1.33447,-1.98313 6.27135,-4.85304 8.44905,-14.79819 1.75116,-7.99722 1.24922,-17.3238 2.49259,-16.83311 z"
             id="path17864"
             sodipodi:nodetypes="ccsc" />
          <path
             inkscape:connector-curvature="0"
             style="fill:#000000;fill-opacity:1;fill-rule:evenodd;stroke:#000000;stroke-width:1px;stroke-linecap:butt;stroke-linejoin:miter;stroke-opacity:1"
             d="m 354.38158,289.5149 c -0.85163,-1.2674 -5.8759,9.3529 -6.96286,14.32361 -0.91599,4.18885 4.56586,5.34781 4.77453,3.77984 0.61254,-4.6026 2.83021,-17.14819 2.18833,-18.10345 z"
             id="path17866"
             sodipodi:nodetypes="csss" />
        </g>
        <path
           inkscape:connector-curvature="0"
           sodipodi:nodetypes="cssss"
           id="path17868"
           d="m 335.04632,240.63626 c 1.05608,0.96424 0.91832,2.02032 0,3.12231 -0.91834,1.10198 -2.43357,1.33156 -3.48965,0.36732 -1.05607,-0.96424 -1.10199,-1.83665 -0.18366,-2.93864 0.91833,-1.102 2.61723,-1.51524 3.67331,-0.55099 z"
           style="fill:#000000;fill-opacity:1;fill-rule:evenodd;stroke:#000000;stroke-width:0.6528179px;stroke-linecap:butt;stroke-linejoin:miter;stroke-opacity:1" />
        <path
           inkscape:connector-curvature="0"
           sodipodi:nodetypes="cssss"
           id="path17870"
           d="m 339.4339,221.64566 c 1.05608,0.96424 0.91832,2.02032 0,3.12231 -0.91834,1.10198 -2.43357,1.33156 -3.48965,0.36732 -1.05607,-0.96424 -1.10199,-1.83665 -0.18366,-2.93864 0.91833,-1.102 2.61723,-1.51524 3.67331,-0.55099 z"
           style="fill:#000000;fill-opacity:1;fill-rule:evenodd;stroke:#000000;stroke-width:0.6528179px;stroke-linecap:butt;stroke-linejoin:miter;stroke-opacity:1" />
        <path
           inkscape:connector-curvature="0"
           sodipodi:nodetypes="ccc"
           id="path17872"
           d="m 329.35852,228.57555 c -1.41189,-1.50818 -5.6648,4.39663 -4.282,5.22947 1.44628,-0.21393 3.17347,-1.31852 4.282,-5.22947 z"
           style="fill:#000000;fill-opacity:1;fill-rule:evenodd;stroke:#000000;stroke-width:0.48784918px;stroke-linecap:butt;stroke-linejoin:miter;stroke-opacity:1" />
        <path
           inkscape:connector-curvature="0"
           sodipodi:nodetypes="ccc"
           id="path17874"
           d="m 340.48244,213.19486 c -1.41189,-1.50818 -6.08681,2.42723 -4.70401,3.26007 1.44628,-0.21393 3.59548,0.65088 4.70401,-3.26007 z"
           style="fill:#000000;fill-opacity:1;fill-rule:evenodd;stroke:#000000;stroke-width:0.48784918px;stroke-linecap:butt;stroke-linejoin:miter;stroke-opacity:1" />
        <path
           inkscape:connector-curvature="0"
           sodipodi:nodetypes="csss"
           id="path17876"
           d="m 329.90244,233.55608 c 0.59375,-1.67242 3.45053,-2.97235 4.49214,-1.46088 1.04162,1.51147 -0.35012,5.36863 -1.98548,5.52958 -1.63534,0.16096 -3.1004,-2.39627 -2.50666,-4.0687 z"
           style="fill:#000000;fill-opacity:1;fill-rule:evenodd;stroke:#000000;stroke-width:0.68774241px;stroke-linecap:butt;stroke-linejoin:miter;stroke-opacity:1" />
        <path
           inkscape:connector-curvature="0"
           sodipodi:nodetypes="csss"
           id="path17878"
           d="m 323.71845,239.72059 c 0.48468,-1.36521 2.81671,-2.42636 3.66699,-1.19253 0.85028,1.23383 -0.28581,4.38248 -1.62078,4.51387 -1.33494,0.13139 -2.53089,-1.95611 -2.04621,-3.32134 z"
           style="fill:#000000;fill-opacity:1;fill-rule:evenodd;stroke:#000000;stroke-width:0.56141293px;stroke-linecap:butt;stroke-linejoin:miter;stroke-opacity:1" />
        <path
           inkscape:connector-curvature="0"
           sodipodi:nodetypes="csss"
           id="path17880"
           d="m 344.05557,216.78962 c 0.39985,-1.12628 2.32374,-2.00171 3.0252,-0.98382 0.70147,1.01789 -0.23578,3.61548 -1.33711,3.72387 -1.10131,0.1084 -2.08795,-1.61376 -1.68809,-2.74005 z"
           style="fill:#000000;fill-opacity:1;fill-rule:evenodd;stroke:#000000;stroke-width:0.46315667px;stroke-linecap:butt;stroke-linejoin:miter;stroke-opacity:1" />
        <path
           inkscape:connector-curvature="0"
           sodipodi:nodetypes="csss"
           id="path17882"
           d="m 345.43187,223.51341 c 1.00273,1.26432 0.62684,4.09332 -1.0406,4.16718 -1.66745,0.0739 -3.9693,-2.85929 -3.30459,-4.19746 0.6647,-1.33816 3.34246,-1.23402 4.34519,0.0303 z"
           style="fill:#000000;fill-opacity:1;fill-rule:evenodd;stroke:#000000;stroke-width:0.62534451px;stroke-linecap:butt;stroke-linejoin:miter;stroke-opacity:1" />
        <path
           inkscape:connector-curvature="0"
           sodipodi:nodetypes="ccc"
           id="path17884"
           d="m 340.30408,230.32019 c -1.78381,-1.04215 -5.14012,4.06447 -3.57706,4.46771 1.32495,-0.61806 3.63162,-0.40306 3.57706,-4.46771 z"
           style="fill:#000000;fill-opacity:1;fill-rule:evenodd;stroke:#000000;stroke-width:0.48784918px;stroke-linecap:butt;stroke-linejoin:miter;stroke-opacity:1" />
        <path
           inkscape:connector-curvature="0"
           sodipodi:nodetypes="ccc"
           id="path17886"
           d="m 333.52017,204.28932 c -2.70011,-3.0804 -13.94304,5.24944 -13.0285,8.19769 1.74867,1.76285 13.99604,-5.16764 13.0285,-8.19769 z"
           style="fill:#000000;fill-opacity:1;fill-rule:evenodd;stroke:#000000;stroke-width:1px;stroke-linecap:butt;stroke-linejoin:miter;stroke-opacity:1" />
        <path
           inkscape:connector-curvature="0"
           sodipodi:nodetypes="ccc"
           id="path17888"
           d="m 326.43601,195.92449 c -3.40698,-2.27419 -10.11376,8.09103 -10.45486,11.29777 3.73773,-1.33753 12.17556,-8.6226 10.45486,-11.29777 z"
           style="fill:#000000;fill-opacity:1;fill-rule:evenodd;stroke:#000000;stroke-width:1px;stroke-linecap:butt;stroke-linejoin:miter;stroke-opacity:1" />
        <path
           inkscape:connector-curvature="0"
           sodipodi:nodetypes="ccc"
           id="path17890"
           d="m 315.52158,192.05758 c -2.6861,0.23446 -2.78258,8.25448 -0.5545,9.34665 2.46551,-0.29459 3.53876,-8.24596 0.5545,-9.34665 z"
           style="fill:#000000;fill-opacity:1;fill-rule:evenodd;stroke:#000000;stroke-width:1px;stroke-linecap:butt;stroke-linejoin:miter;stroke-opacity:1" />
      </g>
      <path
         inkscape:connector-curvature="0"
         style="fill:#000000;fill-opacity:1;fill-rule:evenodd;stroke:#000000;stroke-width:1px;stroke-linecap:butt;stroke-linejoin:miter;stroke-opacity:1"
         d="m 318.3333,174.82832 c -3.71397,-0.0784 -7.28695,11.02492 -0.5545,12.33073 0.81826,-0.29459 0.98441,-11.23004 0.5545,-12.33073 z"
         id="path17892"
         sodipodi:nodetypes="ccc" />
    </g>
    <path
       inkscape:connector-curvature="0"
       sodipodi:nodetypes="cccsc"
       id="path41673"
       d="m 371.83711,175.3096 c 0.0519,-2.1338 -25.64934,-5.04701 -35.80902,2.38726 -11.07401,10.94886 4.64861,17.73464 11.7374,14.72149 2.33217,-1.16609 5.48665,-3.73347 9.86928,-7.35576 6.58876,-5.44566 15.95272,-8.32235 14.20234,-9.75299 z"
       style="fill:#ffffff;fill-opacity:0.77653629;fill-rule:evenodd;stroke:none;stroke-width:1px;stroke-linecap:butt;stroke-linejoin:miter;stroke-opacity:1" />
    <path
       inkscape:connector-curvature="0"
       sodipodi:nodetypes="cccsc"
       id="path17894"
       d="m 370.69458,172.33984 c 0.0519,-2.1338 -25.64934,-5.04701 -35.80902,2.38726 -11.07401,10.94886 4.64861,17.73464 11.7374,14.72149 2.33217,-1.16609 5.48665,-3.73347 9.86928,-7.35576 6.58876,-5.44566 15.95272,-8.32235 14.20234,-9.75299 z"
       style="fill:#000000;fill-opacity:1;fill-rule:evenodd;stroke:#000000;stroke-width:1px;stroke-linecap:butt;stroke-linejoin:miter;stroke-opacity:1" />
    <ellipse
       ry="7.3607426"
       rx="7.6591511"
       cy="181.23341"
       cx="275.03314"
       transform="matrix(-1,0,0,1,618.57256,-0.1402632)"
       id="path17896"
       style="opacity:1;fill:#000000;fill-opacity:1;fill-rule:nonzero;stroke:#777772;stroke-width:1.5;stroke-miterlimit:4;stroke-dasharray:none;stroke-dashoffset:0;stroke-opacity:1" />
    <path
       inkscape:connector-curvature="0"
       sodipodi:nodetypes="ccccccccccc"
       d="m 312.46291,302.18557 c 1.41277,0.18458 2.43889,0.72625 3.76557,1.59957 7.99963,3.84838 11.1294,-4.63239 11.81036,-15.19261 -0.26035,-13.36204 5.99446,-24.41219 5.52731,-26.20282 -0.36583,-0.5684 -5.14407,0.37951 -7.40458,0.78133 -8.45289,1.46444 -11.1692,-0.66931 -14.22511,-2.58542 -3.05592,1.95417 -5.97116,4.08791 -14.42406,2.62348 -2.2605,-0.40183 -8.03343,-1.15079 -8.39926,-0.5824 -0.33826,1.01725 7.27328,9.29833 7.31776,26.79964 0.68096,10.56023 3.61179,18.24524 11.61141,14.39685 1.53076,-1.00765 2.77515,-1.54748 4.4206,-1.63762 z"
       style="fill:url(#radialGradient40700);fill-opacity:1;fill-rule:evenodd;stroke:#000000;stroke-width:0.43638942px;stroke-linecap:butt;stroke-linejoin:miter;stroke-opacity:1"
       id="path27794" />
    <path
       inkscape:connector-curvature="0"
       sodipodi:nodetypes="cccc"
       id="path14915"
       d="m 289.85411,309.74801 c -0.0293,6.95185 12.46062,4.903 12.93104,0.19894 0.33098,-7.47948 -4.23195,-13.11394 -3.18303,-20.09284 -4.34088,4.89944 -9.47094,9.69587 -9.74801,19.8939 z"
       style="fill:#ffffff;fill-opacity:1;fill-rule:evenodd;stroke:#000000;stroke-width:0.80000001;stroke-linecap:butt;stroke-linejoin:miter;stroke-miterlimit:4;stroke-dasharray:none;stroke-opacity:1" />
    <path
       inkscape:connector-curvature="0"
       sodipodi:nodetypes="cccc"
       id="path15886"
       d="m 332.83108,308.77205 c 0.0293,6.95185 -12.46062,4.903 -12.93104,0.19894 -0.33098,-7.47948 4.23195,-13.11394 3.18303,-20.09284 4.34088,4.89944 9.47094,9.69587 9.74801,19.8939 z"
       style="fill:#ffffff;fill-opacity:1;fill-rule:evenodd;stroke:#000000;stroke-width:0.80000001;stroke-linecap:butt;stroke-linejoin:miter;stroke-miterlimit:4;stroke-dasharray:none;stroke-opacity:1" />
    <path
       inkscape:connector-curvature="0"
       sodipodi:nodetypes="cscs"
       id="path16861"
       d="m 301.45819,259.99793 c -0.76251,-1.55968 3.11574,-3.25185 3.93879,-1.68806 1.05503,2.00456 0.84403,6.89289 0.84403,6.89289 0,0 -4.00913,-3.62228 -4.78282,-5.20483 z"
       style="fill:#ffffff;fill-opacity:1;fill-rule:evenodd;stroke:#000000;stroke-width:0.80000001;stroke-linecap:butt;stroke-linejoin:miter;stroke-miterlimit:4;stroke-dasharray:none;stroke-opacity:1" />
    <path
       inkscape:connector-curvature="0"
       sodipodi:nodetypes="cscs"
       id="path17832"
       d="m 319.70468,259.25399 c 0.76251,-1.55968 -3.11574,-3.25185 -3.93879,-1.68806 -1.05503,2.00456 -0.84403,6.89289 -0.84403,6.89289 0,0 4.00913,-3.62228 4.78282,-5.20483 z"
       style="fill:#ffffff;fill-opacity:1;fill-rule:evenodd;stroke:#000000;stroke-width:0.80000001;stroke-linecap:butt;stroke-linejoin:miter;stroke-miterlimit:4;stroke-dasharray:none;stroke-opacity:1" />
    <path
       inkscape:connector-curvature="0"
       sodipodi:nodetypes="ccccccc"
       id="path40604"
       d="m 204.11165,174.27102 c -6.69712,-5.83653 -12.97833,-13.30065 -17.10876,-24.66844 -6.25239,-37.7557 6.78386,-43.25785 24.66844,-33.02387 10.41488,6.75944 19.25063,13.98146 26.25994,22.67904 l -0.19917,-4.6e-4 c -12.38033,-8.29361 -56.48955,-56.484001 -48.939,9.74801 2.97403,11.83336 9.9812,17.21368 15.31855,25.26572 z"
       style="fill:#000000;fill-opacity:1;fill-rule:evenodd;stroke:#000000;stroke-width:1.5;stroke-linecap:butt;stroke-linejoin:miter;stroke-miterlimit:4;stroke-opacity:1" />
    <path
       inkscape:connector-curvature="0"
       sodipodi:nodetypes="ccccccc"
       id="path40606"
       d="m 413.53831,174.07242 c 6.69712,-5.83653 12.97833,-13.30065 17.10876,-24.66844 6.25239,-37.7557 -6.78386,-43.25785 -24.66844,-33.02387 -10.41488,6.75944 -19.25063,13.98146 -26.25994,22.67904 l 0.19917,-4.6e-4 c 12.38033,-8.29361 56.48955,-56.484 48.939,9.74801 -2.97403,11.83336 -9.9812,17.21368 -15.31855,25.26572 z"
       style="fill:#000000;fill-opacity:1;fill-rule:evenodd;stroke:#000000;stroke-width:1.5;stroke-linecap:butt;stroke-linejoin:miter;stroke-miterlimit:4;stroke-opacity:1" />
  </g>
</svg>
